# xmcd CD database file
#
# Track frame offsets:
#	150
#	17240
#	34420
#	51170
#
# Disc length: 907 seconds
#
# Revision: 0
# Processed by: cddbd v1.5.1PL0 Copyright (c) Steve Scherf et al.
# Submitted via: CDex 1.51
#
DISCID=30038904
DTITLE=嘉陽愛子 - 彼女はゴキゲンななめ
DYEAR=2005
DGENRE=JPop
TTITLE0=彼女はゴキゲンななめ
TTITLE1=さすらいの天使
TTITLE2=彼女はゴキゲンななめ (Instrumental)
TTITLE3=さすらいの天使 (Instrumental)
EXTD=YEAR: 2005
EXTT0=
EXTT1=
EXTT2=
EXTT3=
PLAYORDER=
